<?xml version="1.0" standalone="no"?>
<!DOCTYPE svg PUBLIC "-//W3C//DTD SVG 20010904//EN"
 "http://www.w3.org/TR/2001/REC-SVG-20010904/DTD/svg10.dtd">
<svg version="1.0" xmlns="http://www.w3.org/2000/svg"
 width="700.000000pt" height="700.000000pt" viewBox="0 0 700.000000 700.000000"
 preserveAspectRatio="xMidYMid meet">
<metadata>
Created by potrace 1.11, written by Peter Selinger 2001-2013
</metadata>
<g transform="translate(0.000000,700.000000) scale(0.100000,-0.100000)"
fill="#000000" stroke="none">
<path d="M4660 6986 c-89 -30 -150 -84 -189 -166 l-26 -55 -1 -1156 c-1 -1211
0 -1181 -44 -1269 -42 -82 -158 -167 -251 -184 -21 -4 -471 -7 -1000 -7 -530
-1 -993 -5 -1029 -10 -96 -13 -210 -44 -274 -73 -31 -14 -59 -26 -61 -26 -3 0
-40 -21 -82 -46 -292 -178 -486 -490 -510 -823 -3 -42 -8 -79 -12 -82 -3 -4
-26 -9 -51 -12 -190 -24 -349 -172 -388 -362 -7 -30 -10 -175 -9 -365 l2 -315
225 0 225 0 5 -575 c3 -316 8 -584 12 -595 48 -155 120 -254 236 -324 60 -38
53 7 53 -338 l1 -203 229 0 229 0 0 255 0 255 38 19 c42 21 136 108 169 155
l20 28 38 -48 c40 -51 135 -134 152 -134 33 0 38 -32 39 -269 1 -130 2 -242 3
-248 1 -10 53 -13 226 -13 207 0 225 1 226 18 0 9 1 123 1 253 l0 237 42 23
c101 57 199 179 238 298 21 64 22 84 24 596 1 292 3 537 3 546 1 15 31 17 331
17 240 0 330 -3 331 -12 0 -6 2 -249 4 -541 1 -291 5 -542 9 -556 34 -145 114
-258 237 -338 l56 -36 1 -220 c1 -121 1 -235 1 -253 l1 -32 227 2 228 3 0 250
-1 250 59 38 c53 34 101 79 154 146 l19 23 28 -40 c36 -52 90 -102 149 -136
l47 -28 0 -254 0 -254 230 0 229 0 0 218 c-1 322 -5 288 40 311 62 32 163 140
200 213 65 132 61 -60 61 2555 l0 2382 23 23 c13 13 33 37 45 54 17 25 36 36
94 52 40 11 124 35 186 52 l112 32 0 228 0 227 -207 1 c-115 0 -218 1 -230 1
-23 1 -23 2 -23 151 l0 150 -231 0 -230 0 2 173 3 172 -44 -2 c-57 -4 -116
-33 -167 -84 -63 -62 -90 -130 -92 -230 l-1 -27 -127 -5 c-71 -3 -139 -8 -153
-12 l-25 -6 0 183 0 183 -25 2 c-14 1 -41 -4 -60 -11z"/>
</g>
</svg>
